<svg xmlns="http://www.w3.org/2000/svg" viewBox="0 0 13.6 17.54"><defs><style>.cls-1{fill:#fff;}</style></defs><g id="Layer_2" data-name="Layer 2"><g id="Layer_5" data-name="Layer 5"><g id="F_crowded" data-name="F crowded"><path class="cls-1" d="M13.43,1.36A2.42,2.42,0,0,0,13,.66a2.08,2.08,0,0,0-.7-.48A2.18,2.18,0,0,0,11.36,0,2.13,2.13,0,0,0,9.8.65a2.08,2.08,0,0,0-.47.68H2.24a.78.78,0,0,0-.74.35,1.62,1.62,0,0,0-.19.79V13.32A2.22,2.22,0,0,0,.64,16.9a2.13,2.13,0,0,0,1.54.64,2.13,2.13,0,0,0,.88-.18,2.37,2.37,0,0,0,.68-.45,2.14,2.14,0,0,0,.49-.72,2.26,2.26,0,0,0,.17-.85,2.11,2.11,0,0,0-.18-.86,2.17,2.17,0,0,0-.47-.69,2.38,2.38,0,0,0-.69-.48h0V10.06H4.74a1.94,1.94,0,0,0,.34.47,2.15,2.15,0,0,0,1.55.64A2.12,2.12,0,0,0,7.5,11a2.24,2.24,0,0,0,.68-.45,2.06,2.06,0,0,0,.49-.71A2.31,2.31,0,0,0,8.84,9a2.27,2.27,0,0,0-.17-.86,2.34,2.34,0,0,0-.47-.69A2.21,2.21,0,0,0,7.5,7a2.12,2.12,0,0,0-.87-.18,2.15,2.15,0,0,0-1.55.64,1.85,1.85,0,0,0-.3.39H3.05V3.25H9.4a2.14,2.14,0,0,0,.4.56,2.16,2.16,0,0,0,1.56.64,2.35,2.35,0,0,0,.89-.17,2.4,2.4,0,0,0,.68-.46,2.07,2.07,0,0,0,.5-.73,2.1,2.1,0,0,0,.17-.86A2.29,2.29,0,0,0,13.43,1.36ZM3.31,14.88a1.14,1.14,0,0,1,.09.46,1.27,1.27,0,0,1-.09.47,1.28,1.28,0,0,1-.26.38,1.24,1.24,0,0,1-.39.25,1.06,1.06,0,0,1-.48.1,1.14,1.14,0,0,1-.83-.35,1.21,1.21,0,0,1,0-1.7,1.1,1.1,0,0,1,.83-.35,1.21,1.21,0,0,1,.48.09,1.48,1.48,0,0,1,.39.26A1.33,1.33,0,0,1,3.31,14.88ZM5.79,8.12a1.15,1.15,0,0,1,.84-.35,1,1,0,0,1,.47.1,1,1,0,0,1,.39.26,1.12,1.12,0,0,1,.26.38A1.18,1.18,0,0,1,7.84,9a1.27,1.27,0,0,1-.09.47,1,1,0,0,1-.26.38,1.33,1.33,0,0,1-.39.26,1.19,1.19,0,0,1-.47.09,1.2,1.2,0,0,1-.84-2.05Zm6.72-5.41a1.36,1.36,0,0,1-.27.39,1.33,1.33,0,0,1-.39.26,1.3,1.3,0,0,1-.49.09,1.17,1.17,0,0,1-.86-.35,1.22,1.22,0,0,1-.35-.87,1.22,1.22,0,0,1,.35-.88A1.21,1.21,0,0,1,11.36,1a1.13,1.13,0,0,1,.49.1,1.16,1.16,0,0,1,.39.26,1.7,1.7,0,0,1,.27.39,1.33,1.33,0,0,1,0,1Z"/></g></g></g></svg>