<?xml version="1.0" standalone="no"?>
<!DOCTYPE svg PUBLIC "-//W3C//DTD SVG 20010904//EN"
 "http://www.w3.org/TR/2001/REC-SVG-20010904/DTD/svg10.dtd">
<svg version="1.0" xmlns="http://www.w3.org/2000/svg"
 width="1024.000000pt" height="1024.000000pt" viewBox="0 0 1024.000000 1024.000000"
 preserveAspectRatio="xMidYMid meet">

<g transform="translate(0.000000,1024.000000) scale(0.100000,-0.100000)"
fill="white" stroke="none">
<path d="M1520 9965 c-483 -83 -891 -389 -1114 -833 -45 -89 -98 -247 -123
-362 -17 -81 -18 -246 -18 -3650 0 -3404 1 -3569 18 -3650 87 -406 322 -749
670 -974 145 -95 318 -167 507 -213 71 -17 249 -18 3615 -21 3094 -2 3552 -1
3635 12 637 100 1152 613 1255 1251 22 136 22 7054 0 7190 -77 477 -386 894
-828 1117 -86 43 -239 96 -357 125 -71 17 -249 18 -3630 19 -2863 2 -3570 0
-3630 -11z m7090 -415 c174 -20 348 -84 491 -180 82 -56 213 -187 269 -269 96
-143 160 -317 180 -491 13 -116 13 -6864 0 -6980 -20 -174 -84 -348 -180 -491
-56 -82 -187 -213 -269 -269 -147 -99 -320 -161 -501 -181 -63 -6 -1258 -9
-3550 -6 -3782 3 -3470 -2 -3650 57 -384 127 -663 476 -710 890 -13 116 -13
6864 0 6980 33 292 184 561 409 730 152 115 358 195 551 213 91 9 6882 6 6960
-3z"/>
<path d="M4452 6568 c-22 -13 -333 -305 -689 -650 l-648 -627 -23 -73 c-24
-78 -28 -151 -12 -208 14 -51 1319 -1355 1370 -1370 71 -20 147 -13 212 22
114 60 157 151 127 263 -9 34 -81 110 -482 513 l-472 472 1566 0 c1760 0 1623
-6 1705 76 69 68 80 154 34 245 -11 21 -39 51 -62 66 l-42 28 -1599 3 c-897 1
-1597 6 -1595 11 2 5 199 212 438 461 239 248 444 468 454 488 13 24 20 57 20
92 1 153 -171 259 -302 188z"/>
</g>
</svg>
