<?xml version="1.0" encoding="UTF-8"?>
<svg width="23px" height="27px" viewBox="0 0 23 27" version="1.1" xmlns="http://www.w3.org/2000/svg" xmlns:xlink="http://www.w3.org/1999/xlink">
    <!-- Generator: Sketch 55.2 (78181) - https://sketchapp.com -->
    <title>Icon @ dark grey landing page</title>
    <desc>Created with Sketch.</desc>
    <g id="Page-1" stroke="none" stroke-width="1" fill="none" fill-rule="evenodd">
        <g id="about-us-link-icon" transform="translate(-1870.000000, -45.000000)" fill="#222222" fill-rule="nonzero" stroke="#222222" stroke-width="0.5">
            <g id="Icon-BUTTON-@" transform="translate(1860.000000, 36.000000)">
                <path d="M27.2583893,30.3087248 L26.4597315,30.3087248 C26.117448,30.3087248 25.8227082,30.2421707 25.5755034,30.1090604 C25.3282985,29.9759501 25.0906052,29.7002258 24.8624161,29.2818792 C23.9496599,29.9284149 22.8467626,30.2516779 21.5536913,30.2516779 C19.8422733,30.2516779 18.5016827,29.7667834 17.5318792,28.7969799 C16.5620757,27.8271764 16.0771812,26.4295393 16.0771812,24.6040268 L16.0771812,20.8389262 C16.0771812,19.0514452 16.5620757,17.6633159 17.5318792,16.6744966 C18.5016827,15.6856774 19.8422733,15.1912752 21.5536913,15.1912752 L26.2315436,15.1912752 C26.5738272,15.1912752 26.8305361,15.2958603 27.0016779,15.5050336 C27.1728196,15.7142069 27.2583893,15.9709157 27.2583893,16.2751678 L27.2583893,27.8557047 C28.28524,27.7796417 29.0268434,27.4753942 29.4832215,26.942953 C29.9395996,26.4105119 30.1677852,25.6498931 30.1677852,24.6610738 L30.1677852,15.761745 C30.1677852,13.6319804 29.1979963,12.5671141 27.2583893,12.5671141 L20.4697987,12.5671141 C18.6062547,12.5671141 16.9899397,13.2706865 15.6208054,14.6778523 C14.251671,16.0469867 13.5671141,17.7964099 13.5671141,19.9261745 L13.5671141,25.5167785 C13.5671141,27.6845746 14.251671,29.4530133 15.6208054,30.8221477 C16.9519082,32.191282 18.5682232,32.8758389 20.4697987,32.8758389 L26.9731544,32.8758389 C27.61969,32.8758389 27.942953,33.2561483 27.942953,34.0167785 L27.942953,34.4161074 C27.942953,35.1387061 27.61969,35.5 26.9731544,35.5 L20.5268456,35.5 C17.940703,35.5 15.7349085,34.6062729 13.909396,32.8187919 C11.969789,31.031311 11,28.5783154 11,25.4597315 L11,19.9832215 C11,16.9026692 11.969789,14.468689 13.909396,12.6812081 C15.7349085,10.8937271 17.940703,10 20.5268456,10 L27.2583893,10 C28.9698072,10 30.3103978,10.5229254 31.2802013,11.5687919 C32.2500048,12.6146585 32.7348993,13.99328 32.7348993,15.704698 L32.7348993,24.7181208 C32.7348993,26.4295388 32.2500048,27.7891448 31.2802013,28.7969799 C30.3103978,29.8048149 28.9698072,30.3087248 27.2583893,30.3087248 Z M25.147651,18.442953 C25.147651,17.6442913 24.7483261,17.2639819 23.9496644,17.3020134 L21.8389262,17.4731544 C20.7740439,17.5492174 19.90884,17.8344494 19.2432886,18.3288591 C18.5777372,18.8232687 18.2449664,19.6789648 18.2449664,20.8959732 L18.2449664,24.6040268 C18.2449664,27.000012 19.3478637,28.1979866 21.5536913,28.1979866 L21.6107383,28.1979866 C23.9686919,28.1979866 25.147651,27.0570584 25.147651,24.7751678 L25.147651,18.442953 Z" id="Icon-@-dark-grey-landing-page"></path>
            </g>
        </g>
    </g>
</svg>