<?xml version="1.0" encoding="UTF-8"?>
<svg width="45px" height="45px" viewBox="0 0 45 45" version="1.1" xmlns="http://www.w3.org/2000/svg" xmlns:xlink="http://www.w3.org/1999/xlink">
    <!-- Generator: Sketch 55.2 (78181) - https://sketchapp.com -->
    <title>icon command white</title>
    <desc>Created with Sketch.</desc>
    <defs>
        <polygon id="path-1" points="0 0 26 0 26 26 0 26"></polygon>
    </defs>
    <g id="Page-1" stroke="none" stroke-width="1" fill="none" fill-rule="evenodd">
        <g id="Search-Categories" transform="translate(-1800.000000, -36.000000)">
            <g id="icon-command-white" transform="translate(1800.000000, 36.000000)">
                <circle id="Oval-Copy" fill="none" cx="22.5" cy="22.5" r="22.5"></circle>
                <g id="Group-3" transform="translate(10.000000, 11.000000)">
                    <mask id="mask-2" fill="white">
                        <use xlink:href="#path-1"></use>
                    </mask>
                    <g id="Clip-2"></g>
                    <path d="M8.06734558,8.0806951 C8.06752789,7.95722478 8.06785367,7.81544149 8.06840865,7.59638419 C8.06848153,7.56761399 8.06848153,7.56761399 8.06855412,7.53884696 C8.07081371,6.64155629 8.06996022,6.1980498 8.06253389,5.67798559 C8.05930212,5.45247072 8.02734288,5.21979321 7.96949951,4.99928106 C7.60640473,3.61583821 5.99977893,2.85473297 4.68926207,3.44198128 C3.68979621,3.88981238 3.09902763,4.9440057 3.26751543,6.03637972 C3.43740013,7.13771894 4.36892178,8.00704258 5.4511853,8.05897118 C5.92471372,8.08168736 6.30648018,8.0849752 7.16878108,8.08111708 C7.17730876,8.08107892 7.17730876,8.08107892 7.1858375,8.08104079 C7.55205571,8.0794041 7.72891987,8.07908631 7.94014527,8.08030692 C7.98201317,8.08055131 8.01940781,8.08067083 8.06734558,8.0806951 Z M17.913239,8.08030808 C17.9930502,8.08041656 18.0862841,8.08058663 18.2194867,8.08085049 C18.3054416,8.08103473 18.3054416,8.08103473 18.3913709,8.08122584 C19.3490583,8.08335574 19.7743162,8.08270095 20.3050241,8.07589025 C20.5293374,8.07301082 20.7461078,8.04459032 20.9391774,7.99097946 C21.8950669,7.72552873 22.4835168,7.10876725 22.6906892,6.15542432 C22.8950457,5.21512501 22.6064245,4.41117166 21.8484343,3.79213834 C21.0954378,3.17711313 20.2484887,3.0620806 19.3633974,3.45414333 C18.4388397,3.86368961 17.9516524,4.59049152 17.9203553,5.61020323 C17.9058576,6.08174186 17.9046657,6.47000568 17.9100508,7.31123721 C17.9101089,7.32031642 17.9101089,7.32031642 17.910167,7.32939649 C17.9125544,7.70209665 17.9133709,7.87559587 17.913239,8.08030808 Z M8.06732181,17.9180499 C7.9188355,17.9179941 7.84783281,17.9179492 7.59768238,17.9177912 C6.62784834,17.9171783 6.19689144,17.917276 5.65842305,17.918785 C5.22504201,17.9200636 4.83934314,18.016015 4.50929985,18.2116987 C3.61324872,18.7429363 3.19375731,19.501857 3.24776175,20.5202223 C3.28094355,21.145456 3.53466964,21.6760464 3.99824971,22.0946256 C4.77388292,22.7950623 5.6405155,22.9549369 6.58099693,22.5617178 C7.51494879,22.1712031 8.01338467,21.4522268 8.05648573,20.4356145 C8.07875815,19.9099771 8.08038395,19.4866007 8.07180472,18.5307751 C8.07178374,18.5284374 8.07178374,18.5284374 8.07176276,18.5260997 C8.06928482,18.2500193 8.0679097,18.0738104 8.06732181,17.9180499 Z M8.06699169,17.6888907 C8.06699234,17.688067 8.06699301,17.6872428 8.0669937,17.6864179 C8.06699376,17.6864077 8.06699376,17.6864077 8.0669936,17.6865269 C8.06699264,17.6877036 8.06701702,17.6888847 8.06702548,17.6897608 Z M17.9136579,17.6976225 C17.9136513,17.6973794 17.9136577,17.6969765 17.9136577,17.6965745 C17.9136578,17.6969243 17.9136578,17.6972736 17.9136579,17.6976225 Z M17.9136919,17.917437 C17.9137064,18.0289071 17.9137064,18.095247 17.9137064,18.2954038 C17.9137064,18.6695942 17.9137064,18.6695942 17.9138015,19.0436996 C17.9139991,19.5621707 17.91458,19.9842781 17.9157925,20.3900144 C17.9169245,20.7574292 18.0065783,21.110069 18.1835724,21.4536782 C18.8197803,22.6882529 20.3941667,23.1392143 21.5579246,22.4161884 C22.4048804,21.8899878 22.7984315,21.1327307 22.7365602,20.1381898 C22.6653679,18.993536 21.6737336,17.9976061 20.5431021,17.9387389 C20.1391208,17.9177404 19.8104265,17.9144893 19.0764982,17.9175817 C19.0741626,17.9175916 19.0741626,17.9175916 19.0718269,17.9176014 C18.7488827,17.9189623 18.6051288,17.9191925 18.4269323,17.9180742 L18.4248673,17.9180675 C18.280594,17.9171254 18.1652079,17.9170395 17.9136919,17.917437 Z M10.6337906,15.3537461 L15.3468602,15.3537461 L15.3468602,10.6444105 L10.6337906,10.6444105 L10.6337906,15.3537461 Z M8.06020084,15.3653573 L8.06020084,10.6337157 C7.81254412,10.6336961 7.75953287,10.6336842 7.42255983,10.633609 C6.55022814,10.6334142 6.16253719,10.6334307 5.6779817,10.6338375 C4.60666071,10.6347839 3.63492054,10.3314678 2.78670941,9.72098613 C1.60691589,8.87185758 0.904361882,7.73112476 0.735196411,6.33569847 C0.496464285,4.36641996 1.20274077,2.74675695 2.80654252,1.59244704 C4.67437002,0.248169461 7.27584059,0.412944382 8.97794274,1.97082514 C10.0727414,2.97281107 10.6244811,4.24169741 10.6253003,5.74094173 C10.6255438,6.199644 10.6255681,6.56658504 10.6254951,7.39213756 C10.6254635,7.74951738 10.6254592,7.79744596 10.6254626,8.07180997 L15.3554446,8.07181034 C15.3555267,7.89257462 15.354893,7.70654582 15.3533918,7.37270286 C15.3533751,7.36899084 15.3533751,7.36899084 15.3533584,7.3652787 C15.3492084,6.4423342 15.3508632,6.02493431 15.3659465,5.50670001 C15.4252396,3.46965042 16.7062831,1.68775194 18.6147901,0.995573962 C21.2471945,0.0408847196 24.0967928,1.38308451 25.0034477,3.99577996 C25.6673881,5.90901475 25.2694045,7.68093858 23.8560162,9.15599567 C22.9424343,10.1094095 21.7745432,10.6066394 20.4253593,10.6294645 C19.9159327,10.6380917 19.5091373,10.638734 18.5948365,10.6354991 C18.5929202,10.6354924 18.5929202,10.6354924 18.591004,10.6354856 C18.2754014,10.634369 18.0950217,10.6338464 17.9234078,10.6337324 L17.9234078,15.3644627 C18.0830549,15.364422 18.2562692,15.3643168 18.5504526,15.364109 C19.4255728,15.3634908 19.8145824,15.3635485 20.301005,15.364868 C22.7011099,15.37132 24.7350493,17.0199346 25.2016368,19.3551129 C25.6400773,21.5494536 24.6200545,23.6725251 22.67876,24.7169963 C20.8098023,25.7224828 18.5446896,25.4455794 16.9853155,24.0153812 C15.9029151,23.0226269 15.3567546,21.7567911 15.3554053,20.2649007 C15.3549747,19.8012995 15.3549392,19.3998362 15.3551131,18.6135208 C15.3551207,18.5791241 15.3551207,18.5791241 15.3551284,18.5447279 C15.3552007,18.2206464 15.355211,18.1741647 15.3552302,17.9297428 L10.6252136,17.9297428 C10.6251404,18.1099457 10.6258274,18.296274 10.6274538,18.6320823 C10.6274803,18.6375531 10.6274803,18.6375531 10.6275068,18.6430241 C10.6319559,19.5618708 10.6302557,19.9804947 10.6145285,20.4980326 C10.5413283,22.9116235 8.76339276,24.9112899 6.37711169,25.2574346 C4.93962822,25.465892 3.62696275,25.1009128 2.50009362,24.1780161 C1.45311591,23.3205506 0.846364026,22.2029237 0.712735599,20.8722484 C0.56204191,19.3721498 0.999336219,18.0466299 2.01920916,16.9552573 C2.90688194,16.0053617 3.99036779,15.4698998 5.2323341,15.3979909 C5.80483477,15.3648411 6.26441954,15.359687 7.28493294,15.364184 C7.28774274,15.3641964 7.28774274,15.3641964 7.29055244,15.3642088 C7.66120778,15.3658423 7.86182176,15.3663157 8.06020084,15.3653559 Z" id="Fill-1" stroke="#222222" stroke-width="0.6325" fill="#222222" mask="url(#mask-2)"></path>
                </g>
            </g>
        </g>
    </g>
</svg>